<svg xmlns="http://www.w3.org/2000/svg" xmlns:xlink="http://www.w3.org/1999/xlink" contentStyleType="text/css" height="386px" preserveAspectRatio="none" style="width:3793px;height:386px;background:#FFFFFF;" version="1.1" viewBox="0 0 3793 386" width="3793px" zoomAndPan="magnify"><defs/><g><!--cluster 2567a5ec9705eb7ac2c984033e06189d--><g id="cluster_2567a5ec9705eb7ac2c984033e06189d"><polygon fill="none" points="16,16,26,6,638,6,638,265.19,628,275.19,16,275.19,16,16" style="stroke:#181818;stroke-width:1.0;"/><line style="stroke:#181818;stroke-width:1.0;" x1="628" x2="638" y1="16" y2="6"/><line style="stroke:#181818;stroke-width:1.0;" x1="16" x2="628" y1="16" y2="16"/><line style="stroke:#181818;stroke-width:1.0;" x1="628" x2="628" y1="16" y2="275.19"/><text fill="#000000" font-family="sans-serif" font-size="14" font-weight="bold" lengthAdjust="spacing" textLength="35" x="305.5" y="31.9951">Web</text></g><!--cluster d77d5e503ad1439f585ac494268b351b--><g id="cluster_d77d5e503ad1439f585ac494268b351b"><polygon fill="none" points="1320,16,1330,6,1878,6,1878,147.19,1868,157.19,1320,157.19,1320,16" style="stroke:#181818;stroke-width:1.0;"/><line style="stroke:#181818;stroke-width:1.0;" x1="1868" x2="1878" y1="16" y2="6"/><line style="stroke:#181818;stroke-width:1.0;" x1="1320" x2="1868" y1="16" y2="16"/><line style="stroke:#181818;stroke-width:1.0;" x1="1868" x2="1868" y1="16" y2="157.19"/><text fill="#000000" font-family="sans-serif" font-size="14" font-weight="bold" lengthAdjust="spacing" textLength="21" x="1584.5" y="31.9951">Db</text></g><!--cluster 86a1b907d54bf7010394bf316e183e67--><g id="cluster_86a1b907d54bf7010394bf316e183e67"><polygon fill="none" points="1902,16,1912,6,2380,6,2380,147.19,2370,157.19,1902,157.19,1902,16" style="stroke:#181818;stroke-width:1.0;"/><line style="stroke:#181818;stroke-width:1.0;" x1="2370" x2="2380" y1="16" y2="6"/><line style="stroke:#181818;stroke-width:1.0;" x1="1902" x2="2370" y1="16" y2="16"/><line style="stroke:#181818;stroke-width:1.0;" x1="2370" x2="2370" y1="16" y2="157.19"/><text fill="#000000" font-family="sans-serif" font-size="14" font-weight="bold" lengthAdjust="spacing" textLength="43" x="2115.5" y="31.9951">Redis</text></g><!--cluster 66cc377b3a70e02d70e9bd817e4c0d91--><g id="cluster_66cc377b3a70e02d70e9bd817e4c0d91"><polygon fill="none" points="2404,16,2414,6,3086,6,3086,147.19,3076,157.19,2404,157.19,2404,16" style="stroke:#181818;stroke-width:1.0;"/><line style="stroke:#181818;stroke-width:1.0;" x1="3076" x2="3086" y1="16" y2="6"/><line style="stroke:#181818;stroke-width:1.0;" x1="2404" x2="3076" y1="16" y2="16"/><line style="stroke:#181818;stroke-width:1.0;" x1="3076" x2="3076" y1="16" y2="157.19"/><text fill="#000000" font-family="sans-serif" font-size="14" font-weight="bold" lengthAdjust="spacing" textLength="108" x="2687" y="31.9951">Celeryworker</text></g><!--cluster 60d81df2438ec98f1b6db76c35cb4770--><g id="cluster_60d81df2438ec98f1b6db76c35cb4770"><polygon fill="none" points="3110,16,3120,6,3776,6,3776,147.19,3766,157.19,3110,157.19,3110,16" style="stroke:#181818;stroke-width:1.0;"/><line style="stroke:#181818;stroke-width:1.0;" x1="3766" x2="3776" y1="16" y2="6"/><line style="stroke:#181818;stroke-width:1.0;" x1="3110" x2="3766" y1="16" y2="16"/><line style="stroke:#181818;stroke-width:1.0;" x1="3766" x2="3766" y1="16" y2="157.19"/><text fill="#000000" font-family="sans-serif" font-size="14" font-weight="bold" lengthAdjust="spacing" textLength="86" x="3396" y="31.9951">Celerybeat</text></g><!--cluster 608f0b988db4a96066af7dd8870de96c--><g id="cluster_608f0b988db4a96066af7dd8870de96c"><polygon fill="none" points="662,16,672,6,1296,6,1296,265.19,1286,275.19,662,275.19,662,16" style="stroke:#181818;stroke-width:1.0;"/><line style="stroke:#181818;stroke-width:1.0;" x1="1286" x2="1296" y1="16" y2="6"/><line style="stroke:#181818;stroke-width:1.0;" x1="662" x2="1286" y1="16" y2="16"/><line style="stroke:#181818;stroke-width:1.0;" x1="1286" x2="1286" y1="16" y2="275.19"/><text fill="#000000" font-family="sans-serif" font-size="14" font-weight="bold" lengthAdjust="spacing" textLength="54" x="948" y="31.9951">Flower</text></g><!--entity a6b2a97df6e95603aceadecd2f6dd14e--><g id="elem_a6b2a97df6e95603aceadecd2f6dd14e"><rect fill="#F1F1F1" height="95.1875" rx="2.5" ry="2.5" style="stroke:#181818;stroke-width:0.5;" width="590" x="32" y="46"/><rect fill="#F1F1F1" height="10" style="stroke:#181818;stroke-width:0.5;" width="15" x="602" y="51"/><rect fill="#F1F1F1" height="2" style="stroke:#181818;stroke-width:0.5;" width="4" x="600" y="53"/><rect fill="#F1F1F1" height="2" style="stroke:#181818;stroke-width:0.5;" width="4" x="600" y="57"/><text fill="#000000" font-family="sans-serif" font-size="14" font-weight="bold" lengthAdjust="spacing" textLength="400" x="47" y="78.9951">${PROJECT_IMAGE_PREFIX}_${ENVIRONMENT}_web</text><text fill="#000000" font-family="sans-serif" font-size="14" lengthAdjust="spacing" textLength="4" x="47" y="95.292">&#160;</text><text fill="#000000" font-family="sans-serif" font-size="14" lengthAdjust="spacing" textLength="550" x="47" y="111.5889">image: ${PROJECT_IMAGE_PREFIX}_${ENVIRONMENT}_web:${SEM_VER_TAG}</text><text fill="#000000" font-family="sans-serif" font-size="14" lengthAdjust="spacing" textLength="4" x="47" y="127.8857">&#160;</text></g><!--entity fd433df176955d196b161b0a41a19970--><g id="elem_fd433df176955d196b161b0a41a19970"><ellipse cx="327" cy="230.19" fill="#F1F1F1" rx="8" ry="8" style="stroke:#181818;stroke-width:0.5;"/><text fill="#000000" font-family="sans-serif" font-size="14" lengthAdjust="spacing" textLength="36" x="309" y="260.1851">8000</text></g><!--entity cc355ec5825692eb7435ae85033fac7c--><g id="elem_cc355ec5825692eb7435ae85033fac7c"><rect fill="#F1F1F1" height="95.1875" rx="2.5" ry="2.5" style="stroke:#181818;stroke-width:0.5;" width="525" x="1336.5" y="46"/><rect fill="#F1F1F1" height="10" style="stroke:#181818;stroke-width:0.5;" width="15" x="1841.5" y="51"/><rect fill="#F1F1F1" height="2" style="stroke:#181818;stroke-width:0.5;" width="4" x="1839.5" y="53"/><rect fill="#F1F1F1" height="2" style="stroke:#181818;stroke-width:0.5;" width="4" x="1839.5" y="57"/><text fill="#000000" font-family="sans-serif" font-size="14" font-weight="bold" lengthAdjust="spacing" textLength="386" x="1351.5" y="78.9951">${PROJECT_IMAGE_PREFIX}_${ENVIRONMENT}_db</text><text fill="#000000" font-family="sans-serif" font-size="14" lengthAdjust="spacing" textLength="4" x="1351.5" y="95.292">&#160;</text><text fill="#000000" font-family="sans-serif" font-size="14" lengthAdjust="spacing" textLength="485" x="1351.5" y="111.5889">image: ${PROJECT_IMAGE_PREFIX}_production_db:${SEM_VER_TAG}</text><text fill="#000000" font-family="sans-serif" font-size="14" lengthAdjust="spacing" textLength="4" x="1351.5" y="127.8857">&#160;</text></g><!--entity 1ec8412f7572893d08c0e411fccab7f0--><g id="elem_1ec8412f7572893d08c0e411fccab7f0"><rect fill="#F1F1F1" height="95.1875" rx="2.5" ry="2.5" style="stroke:#181818;stroke-width:0.5;" width="446" x="1918" y="46"/><rect fill="#F1F1F1" height="10" style="stroke:#181818;stroke-width:0.5;" width="15" x="2344" y="51"/><rect fill="#F1F1F1" height="2" style="stroke:#181818;stroke-width:0.5;" width="4" x="2342" y="53"/><rect fill="#F1F1F1" height="2" style="stroke:#181818;stroke-width:0.5;" width="4" x="2342" y="57"/><text fill="#000000" font-family="sans-serif" font-size="14" font-weight="bold" lengthAdjust="spacing" textLength="406" x="1933" y="78.9951">${PROJECT_IMAGE_PREFIX}_${ENVIRONMENT}_redis</text><text fill="#000000" font-family="sans-serif" font-size="14" lengthAdjust="spacing" textLength="4" x="1933" y="95.292">&#160;</text><text fill="#000000" font-family="sans-serif" font-size="14" lengthAdjust="spacing" textLength="99" x="1933" y="111.5889">image: redis:6</text><text fill="#000000" font-family="sans-serif" font-size="14" lengthAdjust="spacing" textLength="4" x="1933" y="127.8857">&#160;</text></g><!--entity f2e56bf76297f358273a857de00b9656--><g id="elem_f2e56bf76297f358273a857de00b9656"><rect fill="#F1F1F1" height="95.1875" rx="2.5" ry="2.5" style="stroke:#181818;stroke-width:0.5;" width="649" x="2420.5" y="46"/><rect fill="#F1F1F1" height="10" style="stroke:#181818;stroke-width:0.5;" width="15" x="3049.5" y="51"/><rect fill="#F1F1F1" height="2" style="stroke:#181818;stroke-width:0.5;" width="4" x="3047.5" y="53"/><rect fill="#F1F1F1" height="2" style="stroke:#181818;stroke-width:0.5;" width="4" x="3047.5" y="57"/><text fill="#000000" font-family="sans-serif" font-size="14" font-weight="bold" lengthAdjust="spacing" textLength="472" x="2435.5" y="78.9951">${PROJECT_IMAGE_PREFIX}_${ENVIRONMENT}_celeryworker</text><text fill="#000000" font-family="sans-serif" font-size="14" lengthAdjust="spacing" textLength="4" x="2435.5" y="95.292">&#160;</text><text fill="#000000" font-family="sans-serif" font-size="14" lengthAdjust="spacing" textLength="609" x="2435.5" y="111.5889">image: ${PROJECT_IMAGE_PREFIX}_${ENVIRONMENT}_celeryworker:${SEM_VER_TAG}</text><text fill="#000000" font-family="sans-serif" font-size="14" lengthAdjust="spacing" textLength="4" x="2435.5" y="127.8857">&#160;</text></g><!--entity 8d7ffc0b15315d76f1983c0a5a0d9c61--><g id="elem_8d7ffc0b15315d76f1983c0a5a0d9c61"><rect fill="#F1F1F1" height="95.1875" rx="2.5" ry="2.5" style="stroke:#181818;stroke-width:0.5;" width="633" x="3126.5" y="46"/><rect fill="#F1F1F1" height="10" style="stroke:#181818;stroke-width:0.5;" width="15" x="3739.5" y="51"/><rect fill="#F1F1F1" height="2" style="stroke:#181818;stroke-width:0.5;" width="4" x="3737.5" y="53"/><rect fill="#F1F1F1" height="2" style="stroke:#181818;stroke-width:0.5;" width="4" x="3737.5" y="57"/><text fill="#000000" font-family="sans-serif" font-size="14" font-weight="bold" lengthAdjust="spacing" textLength="450" x="3141.5" y="78.9951">${PROJECT_IMAGE_PREFIX}_${ENVIRONMENT}_celerybeat</text><text fill="#000000" font-family="sans-serif" font-size="14" lengthAdjust="spacing" textLength="4" x="3141.5" y="95.292">&#160;</text><text fill="#000000" font-family="sans-serif" font-size="14" lengthAdjust="spacing" textLength="593" x="3141.5" y="111.5889">image: ${PROJECT_IMAGE_PREFIX}_${ENVIRONMENT}_celerybeat:${SEM_VER_TAG}</text><text fill="#000000" font-family="sans-serif" font-size="14" lengthAdjust="spacing" textLength="4" x="3141.5" y="127.8857">&#160;</text></g><!--entity 35c6697330172fb4e91d4f83918dcd07--><g id="elem_35c6697330172fb4e91d4f83918dcd07"><rect fill="#F1F1F1" height="95.1875" rx="2.5" ry="2.5" style="stroke:#181818;stroke-width:0.5;" width="602" x="678" y="46"/><rect fill="#F1F1F1" height="10" style="stroke:#181818;stroke-width:0.5;" width="15" x="1260" y="51"/><rect fill="#F1F1F1" height="2" style="stroke:#181818;stroke-width:0.5;" width="4" x="1258" y="53"/><rect fill="#F1F1F1" height="2" style="stroke:#181818;stroke-width:0.5;" width="4" x="1258" y="57"/><text fill="#000000" font-family="sans-serif" font-size="14" font-weight="bold" lengthAdjust="spacing" textLength="417" x="693" y="78.9951">${PROJECT_IMAGE_PREFIX}_${ENVIRONMENT}_flower</text><text fill="#000000" font-family="sans-serif" font-size="14" lengthAdjust="spacing" textLength="4" x="693" y="95.292">&#160;</text><text fill="#000000" font-family="sans-serif" font-size="14" lengthAdjust="spacing" textLength="562" x="693" y="111.5889">image: ${PROJECT_IMAGE_PREFIX}_${ENVIRONMENT}_flower:${SEM_VER_TAG}</text><text fill="#000000" font-family="sans-serif" font-size="14" lengthAdjust="spacing" textLength="4" x="693" y="127.8857">&#160;</text></g><!--entity ab22f16b8c907963ce9c69156e047fba--><g id="elem_ab22f16b8c907963ce9c69156e047fba"><ellipse cx="979" cy="230.19" fill="#F1F1F1" rx="8" ry="8" style="stroke:#181818;stroke-width:0.5;"/><text fill="#000000" font-family="sans-serif" font-size="14" lengthAdjust="spacing" textLength="36" x="961" y="260.1851">5555</text></g><!--entity 1624c420083928ef3e240dd88f2e52f0--><g id="elem_1624c420083928ef3e240dd88f2e52f0"><ellipse cx="327" cy="348.19" fill="#F1F1F1" rx="8" ry="8" style="stroke:#181818;stroke-width:0.5;"/><text fill="#000000" font-family="sans-serif" font-size="14" lengthAdjust="spacing" textLength="36" x="309" y="378.1851">8000</text></g><!--entity c5356351a3cd75ef11273a409b0b763e--><g id="elem_c5356351a3cd75ef11273a409b0b763e"><ellipse cx="979" cy="348.19" fill="#F1F1F1" rx="8" ry="8" style="stroke:#181818;stroke-width:0.5;"/><text fill="#000000" font-family="sans-serif" font-size="14" lengthAdjust="spacing" textLength="36" x="961" y="378.1851">5555</text></g><!--link a6b2a97df6e95603aceadecd2f6dd14e to fd433df176955d196b161b0a41a19970--><g id="link_a6b2a97df6e95603aceadecd2f6dd14e_fd433df176955d196b161b0a41a19970"><path codeLine="54" d="M327,141.67 C327,171.08 327,206.18 327,221.45 " fill="none" id="a6b2a97df6e95603aceadecd2f6dd14e-fd433df176955d196b161b0a41a19970" style="stroke:#181818;stroke-width:1.0;"/></g><!--link fd433df176955d196b161b0a41a19970 to 1624c420083928ef3e240dd88f2e52f0--><g id="link_fd433df176955d196b161b0a41a19970_1624c420083928ef3e240dd88f2e52f0"><path codeLine="55" d="M327,239.16 C327,260.46 327,318.46 327,339.47 " fill="none" id="fd433df176955d196b161b0a41a19970-1624c420083928ef3e240dd88f2e52f0" style="stroke:#181818;stroke-width:1.0;"/></g><!--link 35c6697330172fb4e91d4f83918dcd07 to ab22f16b8c907963ce9c69156e047fba--><g id="link_35c6697330172fb4e91d4f83918dcd07_ab22f16b8c907963ce9c69156e047fba"><path codeLine="56" d="M979,141.67 C979,171.08 979,206.18 979,221.45 " fill="none" id="35c6697330172fb4e91d4f83918dcd07-ab22f16b8c907963ce9c69156e047fba" style="stroke:#181818;stroke-width:1.0;"/></g><!--link ab22f16b8c907963ce9c69156e047fba to c5356351a3cd75ef11273a409b0b763e--><g id="link_ab22f16b8c907963ce9c69156e047fba_c5356351a3cd75ef11273a409b0b763e"><path codeLine="57" d="M979,239.16 C979,260.46 979,318.46 979,339.47 " fill="none" id="ab22f16b8c907963ce9c69156e047fba-c5356351a3cd75ef11273a409b0b763e" style="stroke:#181818;stroke-width:1.0;"/></g><!--SRC=[dPHRQnin48NVzrSi8G-j8J2wpKXv2waJKiW5DwI5Keoa6GNJn0vEIbgC_tlbTGCsjDcu-x3iWcOutvdHYNTti-VxoS_9zBQPpbZQlS-Izjhus6g759taGE0aKSmw1s_1605KFd2xQDeykt-OJMNwr4PCEWRYWX8SWebP8ajcNP1PMMc_DeF1_k9gTFbnU7mzFZi_EXsEhqR3axClo_7-OdXnSpQwl3WVNbmlny-I1eEccTp7MpbitrvqkB_uD3mVtmn7u-kZqsNJV6lUlM_tF01qH8MjCLmKON2ELS2aK2M8LaKLAcQp_6F1XxK3JCHEN8Mf12OKvrtCDbYDFXcdqhO3EHjNxNA-6XTqTSmQ5yNNSbDYfhoB0_mM0nxcC_wHdoQpQJt_5_ONcf7mvB43yXXL2b2fR2e42aoe7qQXA6y4QHj8IVPMwKAEj0-6mMSGgrJ9EIOgi0lGVALXWwdxFyHDcSTo9_DVpxFvTvbtQX6hfKJ9H081pVKT4dj5OZDmKDjgYnQ7bGfre6Bg5CX4xuW580Lqk8lQl25bzqtSh7vbB6lU9F5fJGiLZOksnjSxvujAo8cmBbLEbWYsQJrJAHcISaOv9YmgU9CXkbYToQXsfrq9-L_MLUqhf2SrObvc2hxKUNZFoSQ0W1WBCNjFm18mRrDMTiH0ne0YNPALeDWMRuBod1be5yhIYTYTS5ttZsXnzUcuOjAwA4m-r-iLq6IfKmZAeO2bacBrOYkA56gRhGQeCDfBCQ8jh7nOhR4kiDqzE-Em9auqcSb9KMgrtHP2WheYHfhUz3tWW_xuwplGTUbLtZkqLPTUl_eET5twVFaD]--></g></svg>